<svg id="svg" version="1.1" xmlns="http://www.w3.org/2000/svg" xmlns:xlink="http://www.w3.org/1999/xlink" width="400" height="400" viewBox="0, 0, 400,400"><g id="svgg"><path id="path0" d="M65.200 195.200 L 65.200 212.800 92.799 212.800 L 120.398 212.800 120.499 292.300 L 120.600 371.800 140.499 371.904 L 160.398 372.007 160.499 292.504 L 160.600 213.000 188.300 212.897 L 216.000 212.795 216.000 195.197 L 216.000 177.600 140.600 177.600 L 65.200 177.600 65.200 195.200 M227.200 177.968 C 227.200 178.409,235.006 191.405,270.142 249.460 L 279.620 265.121 270.051 281.260 C 264.788 290.137,254.498 307.480,247.185 319.800 C 219.773 365.981,216.400 371.683,216.400 371.843 C 216.400 371.933,225.867 371.960,237.438 371.904 L 258.476 371.800 263.238 363.652 C 265.857 359.170,268.000 355.458,268.000 355.402 C 268.000 355.346,270.722 350.643,274.049 344.950 C 291.343 315.361,293.695 310.815,298.800 297.107 C 300.353 292.938,300.207 292.892,302.593 298.289 C 308.037 310.602,312.620 318.847,333.454 353.800 C 336.077 358.200,339.567 364.095,341.210 366.900 L 344.198 372.000 367.123 372.000 C 379.731 372.000,389.972 371.865,389.880 371.700 C 389.755 371.476,327.912 269.311,325.892 265.991 C 325.615 265.536,327.271 262.436,332.410 253.791 C 336.198 247.416,345.637 231.490,353.384 218.400 C 361.131 205.310,369.659 190.950,372.335 186.490 C 375.011 182.029,377.200 178.204,377.200 177.990 C 377.200 177.742,369.505 177.600,356.017 177.600 L 334.834 177.600 333.866 179.300 C 333.334 180.235,330.063 186.040,326.598 192.200 C 323.133 198.360,319.309 205.110,318.101 207.200 C 313.862 214.534,309.187 224.941,305.988 234.170 L 304.889 237.341 303.423 234.170 C 302.617 232.427,301.482 229.920,300.900 228.600 C 298.146 222.346,291.990 210.837,286.352 201.400 C 282.935 195.680,278.376 187.985,276.222 184.300 L 272.306 177.600 249.753 177.600 C 236.296 177.600,227.200 177.748,227.200 177.968 " stroke="none" fill="#fbfbfb" fill-rule="evenodd"></path><path id="path1" d="M0.000 200.000 L 0.000 400.000 200.000 400.000 L 400.000 400.000 400.000 200.000 L 400.000 0.000 200.000 0.000 L 0.000 0.000 0.000 200.000 M216.000 195.197 L 216.000 212.795 188.300 212.897 L 160.600 213.000 160.499 292.504 L 160.398 372.007 140.499 371.904 L 120.600 371.800 120.499 292.300 L 120.398 212.800 92.799 212.800 L 65.200 212.800 65.200 195.200 L 65.200 177.600 140.600 177.600 L 216.000 177.600 216.000 195.197 M276.222 184.300 C 278.376 187.985,282.935 195.680,286.352 201.400 C 291.990 210.837,298.146 222.346,300.900 228.600 C 301.482 229.920,302.617 232.427,303.423 234.170 L 304.889 237.341 305.988 234.170 C 309.187 224.941,313.862 214.534,318.101 207.200 C 319.309 205.110,323.133 198.360,326.598 192.200 C 330.063 186.040,333.334 180.235,333.866 179.300 L 334.834 177.600 356.017 177.600 C 369.505 177.600,377.200 177.742,377.200 177.990 C 377.200 178.204,375.011 182.029,372.335 186.490 C 369.659 190.950,361.131 205.310,353.384 218.400 C 345.637 231.490,336.198 247.416,332.410 253.791 C 327.271 262.436,325.615 265.536,325.892 265.991 C 327.912 269.311,389.755 371.476,389.880 371.700 C 389.972 371.865,379.731 372.000,367.123 372.000 L 344.198 372.000 341.210 366.900 C 339.567 364.095,336.077 358.200,333.454 353.800 C 312.620 318.847,308.037 310.602,302.593 298.289 C 300.207 292.892,300.353 292.938,298.800 297.107 C 293.695 310.815,291.343 315.361,274.049 344.950 C 270.722 350.643,268.000 355.346,268.000 355.402 C 268.000 355.458,265.857 359.170,263.238 363.652 L 258.476 371.800 237.438 371.904 C 225.867 371.960,216.400 371.933,216.400 371.843 C 216.400 371.683,219.773 365.981,247.185 319.800 C 254.498 307.480,264.788 290.137,270.051 281.260 L 279.620 265.121 270.142 249.460 C 235.006 191.405,227.200 178.409,227.200 177.968 C 227.200 177.748,236.296 177.600,249.753 177.600 L 272.306 177.600 276.222 184.300 " stroke="none" fill="#1cb494" fill-rule="evenodd"></path></g></svg>