<svg id="svg" version="1.1" xmlns="http://www.w3.org/2000/svg" xmlns:xlink="http://www.w3.org/1999/xlink" width="400" height="400" viewBox="0, 0, 400,400"><g id="svgg"><path id="path0" d="M87.068 183.466 C 86.735 183.798,86.720 214.261,87.052 215.500 L 87.293 216.400 113.046 216.400 L 138.798 216.400 138.899 290.900 L 139.000 365.400 157.800 365.400 L 176.600 365.400 176.701 290.903 L 176.802 216.406 202.701 216.303 L 228.600 216.200 228.600 199.800 L 228.600 183.400 157.968 183.299 C 119.120 183.243,87.215 183.318,87.068 183.466 M239.053 183.514 C 238.947 183.686,239.906 185.531,241.184 187.614 C 242.463 189.696,248.505 199.680,254.612 209.800 C 260.718 219.920,267.191 230.630,268.995 233.600 C 283.946 258.213,287.780 264.705,287.772 265.400 C 287.768 265.840,279.474 280.150,269.341 297.200 C 232.371 359.409,229.200 364.780,229.200 365.190 C 229.200 365.476,235.401 365.575,248.844 365.504 L 268.488 365.400 275.580 353.200 C 279.480 346.490,285.707 335.780,289.417 329.400 C 298.939 313.024,301.904 307.116,305.634 297.083 C 307.768 291.341,307.497 291.352,309.968 296.919 C 313.854 305.674,317.817 313.256,323.817 323.416 C 337.142 345.978,338.900 348.953,343.671 357.000 L 348.650 365.400 370.169 365.503 C 388.050 365.589,391.653 365.516,391.482 365.070 C 391.369 364.774,383.761 352.127,374.576 336.966 C 365.391 321.805,351.964 299.642,344.738 287.716 C 337.512 275.790,331.600 265.824,331.600 265.570 C 331.600 265.317,332.393 263.824,333.363 262.254 C 334.333 260.684,339.164 252.560,344.100 244.200 C 352.993 229.137,361.107 215.445,373.492 194.600 C 377.021 188.660,379.829 183.665,379.731 183.500 C 379.633 183.335,370.667 183.200,359.806 183.200 L 340.060 183.200 336.483 189.500 C 325.713 208.469,322.150 214.873,320.221 218.730 C 318.159 222.854,313.147 235.046,312.586 237.304 C 312.104 239.244,311.737 238.877,309.782 234.494 C 306.681 227.543,304.812 223.686,302.180 218.800 C 299.101 213.087,282.526 184.855,281.689 183.900 C 281.033 183.151,239.510 182.774,239.053 183.514 " stroke="none" fill="#fbfbfb" fill-rule="evenodd"></path><path id="path1" d="M0.000 200.000 L 0.000 400.000 200.000 400.000 L 400.000 400.000 400.000 200.000 L 400.000 0.000 200.000 0.000 L 0.000 0.000 0.000 200.000 M228.600 199.800 L 228.600 216.200 202.701 216.303 L 176.802 216.406 176.701 290.903 L 176.600 365.400 157.800 365.400 L 139.000 365.400 138.899 290.900 L 138.798 216.400 113.046 216.400 L 87.293 216.400 87.052 215.500 C 86.720 214.261,86.735 183.798,87.068 183.466 C 87.215 183.318,119.120 183.243,157.968 183.299 L 228.600 183.400 228.600 199.800 M281.689 183.900 C 282.526 184.855,299.101 213.087,302.180 218.800 C 304.812 223.686,306.681 227.543,309.782 234.494 C 311.737 238.877,312.104 239.244,312.586 237.304 C 313.147 235.046,318.159 222.854,320.221 218.730 C 322.150 214.873,325.713 208.469,336.483 189.500 L 340.060 183.200 359.806 183.200 C 370.667 183.200,379.633 183.335,379.731 183.500 C 379.829 183.665,377.021 188.660,373.492 194.600 C 361.107 215.445,352.993 229.137,344.100 244.200 C 339.164 252.560,334.333 260.684,333.363 262.254 C 332.393 263.824,331.600 265.317,331.600 265.570 C 331.600 265.824,337.512 275.790,344.738 287.716 C 351.964 299.642,365.391 321.805,374.576 336.966 C 383.761 352.127,391.369 364.774,391.482 365.070 C 391.653 365.516,388.050 365.589,370.169 365.503 L 348.650 365.400 343.671 357.000 C 338.900 348.953,337.142 345.978,323.817 323.416 C 317.817 313.256,313.854 305.674,309.968 296.919 C 307.497 291.352,307.768 291.341,305.634 297.083 C 301.904 307.116,298.939 313.024,289.417 329.400 C 285.707 335.780,279.480 346.490,275.580 353.200 L 268.488 365.400 248.844 365.504 C 235.401 365.575,229.200 365.476,229.200 365.190 C 229.200 364.780,232.371 359.409,269.341 297.200 C 279.474 280.150,287.768 265.840,287.772 265.400 C 287.780 264.705,283.946 258.213,268.995 233.600 C 267.191 230.630,260.718 219.920,254.612 209.800 C 248.505 199.680,242.463 189.696,241.184 187.614 C 239.906 185.531,238.947 183.686,239.053 183.514 C 239.510 182.774,281.033 183.151,281.689 183.900 " stroke="none" fill="#1cb494" fill-rule="evenodd"></path></g></svg>
